<svg viewBox="0 0 48 39" version="1.1" xmlns="http://www.w3.org/2000/svg" xmlns:xlink="http://www.w3.org/1999/xlink">

<title>Twitter</title>
<desc>Created with Sketch.</desc>
<defs></defs>
<g id="Page-1" stroke="none" stroke-width="1" fill="none" fill-rule="evenodd">
<g id="Social-Icons---Isolated" transform="translate(-276.000000, -59.000000)" fill="#4DC8F1">
<path d="M319.08654,68.7148754 C319.708094,82.5659738 309.37992,98.0092879 291.095386,98.0092879 C285.534424,98.0092879 280.357954,96.3781513 276,93.5841073 C281.223647,94.1997641 286.439039,92.7514374 290.5788,89.505676 C286.270382,89.4266549 282.633053,86.5795371 281.38051,82.6674038 C282.92319,82.9622586 284.441103,82.876161 285.82692,82.4999263 C281.090373,81.5469556 277.822203,77.2809966 277.92835,72.7190034 C279.256376,73.4561404 280.775468,73.8996019 282.390093,73.9491375 C278.003833,71.0194604 276.761905,65.2285125 279.342474,60.8021524 C284.198142,66.7605779 291.453929,70.6809671 299.639098,71.0925844 C298.203745,64.9312988 302.876603,59 309.232493,59 C312.065458,59 314.624797,60.1947516 316.419873,62.1089488 C318.663128,61.6678461 320.77075,60.8481498 322.673153,59.7194457 C321.938375,62.019313 320.376824,63.9500221 318.343506,65.1671827 C320.335545,64.9301194 322.23323,64.4005602 324,63.6174259 C322.68023,65.592953 321.010172,67.3266991 319.08654,68.7148754" id="Twitter" style="fill: rgb(255, 255, 255);"></path>
</g>
</g>
</svg>