<svg version="1.1" id="Layer_1" xmlns="http://www.w3.org/2000/svg" xmlns:xlink="http://www.w3.org/1999/xlink" x="0px" y="0px" viewBox="0 0 40.3 28.7" enable-background="new 0 0 40.3 28.7" xml:space="preserve">
<g id="XMLID_2245_">
<g id="XMLID_2250_">
<path id="XMLID_2252_" fill="#ffffff" d="M38.3,5.1c-0.4-1.6-1.7-2.9-3.4-3.4c-3-0.8-14.8-0.8-14.8-0.8S8.2,0.9,5.3,1.7
			C3.6,2.2,2.3,3.5,1.9,5.1c-0.8,3-0.8,9.2-0.8,9.2s0,6.2,0.8,9.2c0.4,1.6,1.7,2.9,3.4,3.4c3,0.8,14.8,0.8,14.8,0.8s11.9,0,14.8-0.8
			c1.6-0.4,2.9-1.7,3.4-3.4c0.8-3,0.8-9.2,0.8-9.2S39.1,8.1,38.3,5.1z"></path>
<polygon id="XMLID_2251_" fill="#292929" points="16.2,20 16.2,8.7 26.1,14.3 		"></polygon>
</g>
</g>
</svg>