<svg width="512" height="512" xmlns="http://www.w3.org/2000/svg">

 <g>
  <title>background</title>
  <rect fill="none" id="canvas_background" height="402" width="582" y="-1" x="-1"/>
 </g>
 <g>
  <title>Layer 1</title>
  <path fill="#898989" clip-rule="evenodd" fill-rule="evenodd" id="svg_2" d="m256,32c-123.7,0 -224,102.8 -224,229.7c0,101.5 64.2,187.5 153.2,217.9c11.2,2.1 15.3,-5 15.3,-11.1c0,-5.5 -0.2,-19.9 -0.3,-39.1c-62.3,13.9 -75.5,-30.8 -75.5,-30.8c-10.2,-26.5 -24.9,-33.6 -24.9,-33.6c-20.3,-14.3 1.5,-14 1.5,-14c22.5,1.6 34.3,23.7 34.3,23.7c20,35.1 52.4,25 65.2,19.1c2,-14.8 7.8,-25 14.2,-30.7c-49.7,-5.8 -102,-25.5 -102,-113.5c0,-25.1 8.7,-45.6 23,-61.6c-2.3,-5.8 -10,-29.2 2.2,-60.8c0,0 18.8,-6.2 61.6,23.5c17.9,-5.1 37,-7.6 56.1,-7.7c19,0.1 38.2,2.6 56.1,7.7c42.8,-29.7 61.5,-23.5 61.5,-23.5c12.2,31.6 4.5,55 2.2,60.8c14.3,16.1 23,36.6 23,61.6c0,88.2 -52.4,107.6 -102.3,113.3c8,7.1 15.2,21.1 15.2,42.5c0,30.7 -0.3,55.5 -0.3,63c0,6.1 4,13.3 15.4,11c89.2,-30.3 153.3,-116.3 153.3,-217.7c0,-126.9 -100.3,-229.7 -224,-229.7z" class="st0"/>
 </g>
</svg>