<svg width="600" height="600" xmlns="http://www.w3.org/2000/svg" clip-rule="evenodd">

 <g>
  <title>background</title>
  <rect fill="none" id="canvas_background" height="402" width="582" y="-1" x="-1"/>
 </g>
 <g>
  <title>Layer 1</title>
  <path fill="#898989" id="svg_2" fill-rule="nonzero" d="m299.999601,45.459118c-69.525687,0 -78.243581,0.294695 -105.548607,1.540544c-27.248119,1.243817 -45.857606,5.570754 -62.142051,11.899585c-16.834204,6.542231 -31.110657,15.295692 -45.342398,29.527433c-14.231741,14.231741 -22.985202,28.508194 -29.527433,45.342398c-6.328831,16.283429 -10.655768,34.892916 -11.899585,62.141035c-1.245849,27.305025 -1.539528,36.022919 -1.539528,105.548607c0,69.524671 0.293679,78.242565 1.539528,105.547591c1.243817,27.248119 5.570754,45.857606 11.899585,62.141035c6.542231,16.834204 15.295692,31.110657 29.527433,45.343414c14.231741,14.231741 28.508194,22.985202 45.342398,29.527433c16.284445,6.327815 34.893932,10.655768 62.142051,11.898569c27.305025,1.245849 36.022919,1.540544 105.548607,1.540544c69.524671,0 78.242565,-0.294695 105.547591,-1.540544c27.248119,-1.2428 45.857606,-5.570754 62.141035,-11.898569c16.834204,-6.542231 31.110657,-15.295692 45.343414,-29.527433c14.231741,-14.232757 22.985202,-28.50921 29.527433,-45.343414c6.327815,-16.283429 10.655768,-34.892916 11.898569,-62.141035c1.245849,-27.305025 1.540544,-36.022919 1.540544,-105.547591c0,-69.525687 -0.294695,-78.243581 -1.540544,-105.548607c-1.2428,-27.248119 -5.570754,-45.857606 -11.898569,-62.141035c-6.542231,-16.834204 -15.295692,-31.110657 -29.527433,-45.342398c-14.232757,-14.231741 -28.50921,-22.985202 -45.343414,-29.527433c-16.283429,-6.328831 -34.892916,-10.655768 -62.141035,-11.899585c-27.305025,-1.245849 -36.022919,-1.540544 -105.547591,-1.540544zm0,46.126896c68.35402,0 76.451022,0.260145 103.445093,1.491767c24.959659,1.139149 38.514617,5.309593 47.535336,8.814432c11.949378,4.643988 20.477245,10.192386 29.43496,19.150101c8.958731,8.957715 14.506112,17.486598 19.150101,29.43496c3.505855,9.020719 7.676299,22.575677 8.814432,47.535336c1.231622,26.994071 1.492783,35.091073 1.492783,103.44611c0,68.35402 -0.261161,76.451022 -1.492783,103.445093c-1.138133,24.959659 -5.308577,38.514617 -8.814432,47.535336c-4.643988,11.949378 -10.19137,20.477245 -19.150101,29.43496c-8.957715,8.958731 -17.485581,14.506112 -29.43496,19.150101c-9.020719,3.505855 -22.575677,7.676299 -47.535336,8.814432c-26.990006,1.231622 -35.085992,1.492783 -103.445093,1.492783c-68.360117,0 -76.455087,-0.261161 -103.44611,-1.492783c-24.959659,-1.138133 -38.514617,-5.308577 -47.535336,-8.814432c-11.949378,-4.643988 -20.477245,-10.19137 -29.435976,-19.150101c-8.957715,-8.957715 -14.506112,-17.485581 -19.149084,-29.43496c-3.505855,-9.020719 -7.676299,-22.575677 -8.815448,-47.535336c-1.231622,-26.994071 -1.491767,-35.091073 -1.491767,-103.445093c0,-68.355037 0.260145,-76.452038 1.491767,-103.44611c1.139149,-24.959659 5.309593,-38.514617 8.815448,-47.535336c4.642972,-11.948362 10.19137,-20.477245 19.149084,-29.43496c8.958731,-8.957715 17.486598,-14.506112 29.435976,-19.150101c9.020719,-3.504839 22.575677,-7.675283 47.535336,-8.814432c26.994071,-1.231622 35.091073,-1.491767 103.44611,-1.491767z"/>
  <path stroke="#898989" id="svg_3" fill="#898989" fill-rule="nonzero" d="m299.999601,385.332098c-47.12886,0 -85.333539,-38.204679 -85.333539,-85.332523c0,-47.12886 38.204679,-85.333539 85.333539,-85.333539c47.127844,0 85.332523,38.204679 85.332523,85.333539c0,47.127844 -38.204679,85.332523 -85.332523,85.332523zm0,-216.791942c-72.603727,0 -131.459419,58.855692 -131.459419,131.459419c0,72.602711 58.855692,131.458403 131.459419,131.458403c72.602711,0 131.458403,-58.855692 131.458403,-131.458403c0,-72.603727 -58.855692,-131.459419 -131.458403,-131.459419z"/>
  <path stroke="#898989" stroke-opacity="0" fill-opacity="0" id="svg_4" fill="#898989" fill-rule="nonzero" d="m467.372191,163.346409c0,16.966308 -13.754132,30.719424 -30.72044,30.719424c-16.965292,0 -30.719424,-13.753115 -30.719424,-30.719424c0,-16.966308 13.754132,-30.719424 30.719424,-30.719424c16.966308,0 30.72044,13.753115 30.72044,30.719424z"/>
 </g>
</svg>