<svg width="32" height="32" xmlns="http://www.w3.org/2000/svg">

 <g>
  <title>background</title>
  <rect fill="none" id="canvas_background" height="402" width="582" y="-1" x="-1"/>
 </g>
 <g>
  <title>Layer 1</title>
  <circle id="svg_4" r="0.5" fill="#898989" cy="5.5" cx="7.5"/>
  <circle id="svg_5" r="0.5" fill="#898989" cy="5.5" cx="5.5"/>
  <circle id="svg_6" r="0.5" fill="#898989" cy="5.5" cx="3.5"/>
  <path id="svg_7" fill="#898989" d="m30.5,8l-29,0c-0.276,0 -0.5,-0.224 -0.5,-0.5s0.224,-0.5 0.5,-0.5l29,0c0.276,0 0.5,0.224 0.5,0.5s-0.224,0.5 -0.5,0.5z"/>
  <path id="svg_8" fill="#898989" d="m29.5,29l-27,0c-0.827,0 -1.5,-0.673 -1.5,-1.5l0,-23c0,-0.827 0.673,-1.5 1.5,-1.5l27,0c0.827,0 1.5,0.673 1.5,1.5l0,23c0,0.827 -0.673,1.5 -1.5,1.5zm-27,-25c-0.276,0 -0.5,0.225 -0.5,0.5l0,23c0,0.275 0.224,0.5 0.5,0.5l27,0c0.276,0 0.5,-0.225 0.5,-0.5l0,-23c0,-0.275 -0.224,-0.5 -0.5,-0.5l-27,0z"/>
  <path id="svg_10" fill="#898989" d="m24.5,24c-0.276,0 -0.5,-0.224 -0.5,-0.5l0,-2.5l-3.5,0c-0.163,0 -0.315,-0.079 -0.409,-0.212s-0.117,-0.303 -0.062,-0.456l2.5,-7c0.071,-0.199 0.26,-0.332 0.471,-0.332l1.5,0c0.276,0 0.5,0.224 0.5,0.5l0,6.5l0.5,0c0.276,0 0.5,0.224 0.5,0.5s-0.224,0.5 -0.5,0.5l-0.5,0l0,2.5c0,0.276 -0.224,0.5 -0.5,0.5zm-3.291,-4l2.791,0l0,-6l-0.647,0l-2.144,6z"/>
  <path id="svg_11" fill="#898989" d="m10.5,24c-0.276,0 -0.5,-0.224 -0.5,-0.5l0,-2.5l-3.5,0c-0.163,0 -0.315,-0.079 -0.409,-0.212s-0.117,-0.303 -0.062,-0.456l2.5,-7c0.071,-0.199 0.26,-0.332 0.471,-0.332l1.5,0c0.276,0 0.5,0.224 0.5,0.5l0,6.5l0.5,0c0.276,0 0.5,0.224 0.5,0.5s-0.224,0.5 -0.5,0.5l-0.5,0l0,2.5c0,0.276 -0.224,0.5 -0.5,0.5zm-3.291,-4l2.791,0l0,-6l-0.647,0l-2.144,6z"/>
  <path id="svg_12" fill="#898989" d="m17.5,24l-3,0c-0.827,0 -1.5,-0.673 -1.5,-1.5l0,-8c0,-0.827 0.673,-1.5 1.5,-1.5l3,0c0.827,0 1.5,0.673 1.5,1.5l0,8c0,0.827 -0.673,1.5 -1.5,1.5zm-3,-10c-0.276,0 -0.5,0.225 -0.5,0.5l0,8c0,0.275 0.224,0.5 0.5,0.5l3,0c0.276,0 0.5,-0.225 0.5,-0.5l0,-8c0,-0.275 -0.224,-0.5 -0.5,-0.5l-3,0z"/>
 </g>
</svg>