<svg width="512" height="512" xmlns="http://www.w3.org/2000/svg">

 <g>
  <title>background</title>
  <rect fill="none" id="canvas_background" height="402" width="582" y="-1" x="-1"/>
 </g>
 <g>
  <title>Layer 1</title>
  <path fill="#898989" id="svg_2" d="m508.6,148.8c0,-45 -33.1,-81.2 -74,-81.2c-55.4,-2.6 -111.9,-3.6 -169.6,-3.6c-3,0 -6,0 -9,0s-6,0 -9,0c-57.6,0 -114.2,1 -169.6,3.6c-40.8,0 -73.9,36.4 -73.9,81.4c-2.5,35.6 -3.6,71.2 -3.5,106.8c-0.1,35.6 1,71.2 3.4,106.9c0,45 33.1,81.5 73.9,81.5c58.2,2.7 117.9,3.9 178.6,3.8c60.8,0.2 120.3,-1 178.6,-3.8c40.9,0 74,-36.5 74,-81.5c2.4,-35.7 3.5,-71.3 3.4,-107c0.2,-35.6 -0.9,-71.2 -3.3,-106.9zm-301.6,205.1l0,-196.5l145,98.2l-145,98.3z"/>
 </g>
</svg>