<?xml version="1.0" standalone="no"?>
<!DOCTYPE svg PUBLIC "-//W3C//DTD SVG 20010904//EN"
 "http://www.w3.org/TR/2001/REC-SVG-20010904/DTD/svg10.dtd">
<svg version="1.0" xmlns="http://www.w3.org/2000/svg"
 width="900.000000pt" height="520.000000pt" viewBox="0 0 900.000000 520.000000"
 preserveAspectRatio="xMidYMid meet">

<g transform="translate(0.000000,520.000000) scale(0.100000,-0.100000)"
fill="#000000" stroke="none">
<path d="M2805 4695 l-25 -24 0 -338 c1 -250 4 -342 13 -354 26 -35 54 -39
242 -39 l186 0 98 -85 c70 -60 106 -85 125 -85 l26 0 0 85 0 85 45 0 c35 0 52
6 70 25 l25 24 0 341 0 341 -25 24 -24 25 -366 0 -366 0 -24 -25z m473 -217
c-3 -7 -27 -75 -54 -150 l-49 -138 -37 0 -37 0 38 108 c22 59 42 114 45 122 3
8 10 27 15 43 9 23 16 27 47 27 25 0 35 -4 32 -12z m-188 -50 c0 -30 -5 -35
-55 -57 -30 -13 -55 -26 -55 -30 0 -3 24 -15 53 -26 46 -18 52 -24 55 -53 2
-18 1 -32 -1 -32 -2 0 -48 20 -103 45 -66 29 -100 50 -102 62 -2 14 21 30 100
70 57 28 104 52 106 52 1 1 2 -14 2 -31z m315 -25 c124 -62 124 -71 -9 -129
-54 -24 -100 -44 -102 -44 -2 0 -4 14 -4 31 0 31 6 35 99 71 23 8 20 11 -37
38 -52 24 -62 33 -62 55 0 14 4 25 10 25 5 0 53 -21 105 -47z"/>
<path d="M3933 4346 c-43 -19 -68 -60 -67 -110 1 -33 8 -46 39 -74 38 -35 43
-36 129 -20 13 2 24 -5 32 -21 6 -12 31 -43 55 -67 46 -47 81 -55 87 -20 5 23
-82 114 -112 118 -16 2 -20 9 -17 28 11 80 6 110 -24 139 -37 36 -80 45 -122
27z m98 -45 c37 -38 39 -82 4 -116 -34 -35 -78 -33 -117 5 -25 26 -29 36 -24
62 7 36 22 57 51 68 36 15 56 11 86 -19z"/>
<path d="M5721 4316 c-35 -19 -50 -54 -51 -114 0 -46 4 -58 30 -83 27 -27 35
-30 87 -27 55 3 58 5 61 30 3 26 2 27 -28 18 -36 -10 -74 1 -84 25 -11 29 -6
70 10 94 14 19 23 22 54 18 32 -4 39 -1 48 18 9 20 8 24 -11 29 -37 10 -91 6
-116 -8z"/>
<path d="M5900 4211 l0 -121 25 0 c25 0 25 1 25 83 1 91 8 88 35 -15 17 -66
19 -68 50 -68 30 0 32 2 49 73 26 102 36 104 36 9 0 -81 0 -82 25 -82 l25 0 0
120 0 120 -40 0 c-24 0 -42 -5 -45 -12 -2 -7 -13 -46 -25 -86 -12 -41 -23 -72
-26 -70 -2 3 -15 40 -28 84 l-23 79 -42 3 -41 3 0 -120z"/>
<path d="M6240 4310 c-11 -11 -20 -33 -20 -48 0 -31 17 -51 68 -76 56 -29 34
-64 -30 -45 -18 5 -34 9 -36 9 -2 0 -2 -12 0 -27 3 -26 6 -28 56 -31 76 -4
104 15 100 70 -3 38 -8 44 -47 68 -63 36 -66 54 -8 48 40 -5 47 -3 53 15 8 26
-11 37 -68 37 -35 0 -54 -6 -68 -20z"/>
<path d="M4921 4159 c-146 -27 -245 -146 -245 -294 0 -121 63 -224 170 -276
71 -34 226 -40 304 -10 244 92 259 442 25 556 -59 29 -168 39 -254 24z m-41
-199 c16 -9 18 -15 9 -33 -8 -19 -17 -22 -44 -19 -29 4 -36 0 -46 -22 -10 -20
-9 -32 0 -52 10 -24 16 -26 51 -21 38 5 40 4 40 -23 0 -25 -5 -29 -38 -35 -77
-13 -122 27 -122 108 0 40 5 53 29 78 31 31 83 39 121 19z m175 -2 c3 -3 1
-17 -4 -31 -9 -24 -13 -26 -37 -17 -42 17 -49 -1 -8 -24 49 -28 61 -48 48 -83
-13 -37 -54 -56 -105 -48 -35 6 -39 10 -39 36 0 29 1 29 40 23 48 -8 54 8 10
26 -35 14 -50 37 -50 74 0 38 36 58 93 53 26 -2 50 -6 52 -9z m162 -2 c3 -3 1
-17 -5 -31 -10 -22 -15 -24 -38 -15 -32 13 -47 2 -20 -14 50 -30 66 -49 66
-75 0 -48 -51 -77 -115 -65 -30 5 -35 10 -35 35 0 28 1 29 45 22 25 -3 45 -3
45 0 0 4 -17 15 -39 26 -56 29 -68 74 -30 112 18 18 30 20 70 17 27 -3 52 -8
56 -12z"/>
<path d="M2576 3649 c-107 -26 -221 -117 -271 -214 -80 -158 -48 -349 79 -473
96 -94 195 -127 362 -120 l103 5 48 -49 c37 -38 54 -48 80 -48 l33 0 0 98 c0
97 0 99 31 128 43 40 86 129 100 208 25 132 -25 271 -132 371 -82 75 -144 98
-284 101 -60 2 -127 -1 -149 -7z m64 -344 c0 -231 -11 -255 -119 -255 l-51 0
0 41 c0 38 2 41 23 36 48 -13 52 0 55 183 l3 170 45 0 44 0 0 -175z m210 104
c49 -10 51 -12 45 -38 -10 -39 -20 -45 -55 -32 -55 19 -53 1 2 -27 52 -26 53
-28 56 -74 2 -36 -1 -51 -17 -67 -23 -23 -91 -34 -141 -23 -32 7 -35 11 -38
50 l-3 41 30 -10 c16 -6 42 -9 58 -7 27 3 26 5 -23 30 -55 29 -64 42 -64 89 0
33 27 61 68 70 15 4 28 7 29 8 1 0 25 -4 53 -10z"/>
<path d="M3772 3430 c-40 -25 -62 -73 -62 -135 0 -98 45 -145 139 -145 67 0
81 7 81 40 0 28 0 29 -54 23 -48 -5 -55 -3 -70 18 -23 34 -21 114 4 139 22 22
46 25 83 11 21 -8 26 -6 36 16 16 36 3 46 -66 50 -46 3 -65 0 -91 -17z"/>
<path d="M4050 3360 c0 -39 -1 -40 -35 -40 -31 0 -35 -3 -35 -25 0 -22 4 -25
35 -25 33 0 35 -2 35 -35 0 -31 3 -35 25 -35 22 0 25 4 25 35 0 34 1 35 40 35
36 0 40 3 40 25 0 23 -4 25 -40 25 l-40 0 0 40 c0 36 -2 40 -25 40 -22 0 -25
-4 -25 -40z"/>
<path d="M4290 3360 c0 -39 -1 -40 -35 -40 -31 0 -35 -3 -35 -25 0 -22 4 -25
35 -25 33 0 35 -2 35 -35 0 -31 3 -35 25 -35 22 0 25 4 25 35 0 34 1 35 40 35
36 0 40 3 40 25 0 23 -4 25 -40 25 l-40 0 0 40 c0 36 -2 40 -25 40 -22 0 -25
-4 -25 -40z"/>
<path d="M5170 3155 c0 -78 2 -85 20 -85 15 0 20 7 20 25 0 17 5 25 18 25 32
0 62 29 62 60 0 37 -32 60 -82 60 l-38 0 0 -85z m70 31 c0 -16 -18 -31 -27
-22 -8 8 5 36 17 36 5 0 10 -6 10 -14z"/>
<path d="M5320 3156 c0 -85 0 -86 25 -86 22 0 25 4 25 36 0 31 3 35 23 32 17
-2 23 -11 25 -35 3 -28 7 -33 28 -33 25 0 25 1 22 83 -3 76 -5 82 -25 85 -18
3 -22 -2 -25 -30 -2 -25 -8 -34 -25 -36 -18 -3 -22 2 -25 30 -2 25 -8 34 -25
36 -22 3 -23 1 -23 -82z"/>
<path d="M5507 3233 c-4 -3 -7 -42 -7 -85 0 -77 0 -78 25 -78 20 0 25 5 25 25
0 18 5 25 20 25 26 0 60 34 60 60 0 33 -35 60 -78 60 -21 0 -42 -3 -45 -7z
m68 -53 c0 -7 -6 -15 -12 -17 -8 -3 -13 4 -13 17 0 13 5 20 13 18 6 -3 12 -11
12 -18z"/>
<path d="M5967 2940 l-27 -21 0 -198 c0 -220 1 -224 68 -237 l32 -6 0 -74 c0
-73 0 -74 26 -74 18 0 50 22 107 75 l82 75 171 0 c177 0 227 8 244 40 6 10 10
102 10 203 0 167 -2 187 -19 208 l-19 24 -324 3 c-317 3 -325 2 -351 -18z
m103 -190 c0 -27 3 -30 30 -30 27 0 30 3 30 30 0 20 5 30 15 30 12 0 15 -15
15 -76 0 -56 -3 -75 -12 -72 -7 3 -14 19 -16 36 -3 28 -7 32 -33 32 -27 0 -29
-3 -29 -36 0 -24 -4 -34 -12 -32 -9 3 -14 30 -16 76 -2 60 0 72 13 72 10 0 15
-10 15 -30z m220 20 c0 -5 -9 -10 -20 -10 -18 0 -20 -7 -20 -66 0 -48 -3 -65
-12 -62 -8 3 -14 28 -16 66 -3 54 -6 62 -22 62 -11 0 -20 5 -20 10 0 6 25 10
55 10 30 0 55 -4 55 -10z m78 -42 l20 -53 11 28 c6 15 14 39 17 52 4 18 13 25
31 25 23 0 24 -2 21 -72 -4 -88 -25 -107 -30 -26 l-3 53 -18 -53 c-11 -30 -24
-51 -30 -49 -7 2 -19 24 -29 48 l-16 44 -4 -45 c-5 -71 -23 -52 -26 28 -3 66
-1 72 17 72 14 0 25 -14 39 -52z m162 -8 l0 -60 31 0 c47 0 30 -24 -19 -28
l-42 -3 0 75 c0 61 3 76 15 76 12 0 15 -13 15 -60z"/>
<path d="M4237 2919 c-22 -12 -44 -34 -54 -54 -9 -19 -26 -38 -37 -41 -43 -13
-76 -55 -76 -98 -1 -23 -7 -52 -15 -66 -8 -14 -14 -36 -15 -49 l0 -24 -474 6
c-261 3 -476 4 -478 2 -3 -3 83 -1574 91 -1677 1 -5 84 -8 185 -8 113 0 187
-4 191 -10 3 -6 3 -31 -1 -56 -5 -37 -10 -44 -23 -38 -42 18 -90 26 -114 20
-33 -8 -104 -70 -113 -98 -6 -21 -59 -48 -96 -48 -19 0 -36 -25 -106 -160 -58
-111 -82 -168 -80 -187 l3 -28 392 -5 c215 -3 395 -9 399 -13 10 -10 23 -128
23 -219 l1 -68 260 0 260 0 0 135 0 135 -201 0 -201 0 -29 29 -29 29 0 442 0
442 34 34 34 34 541 0 541 0 32 -29 33 -29 3 -428 c3 -456 2 -467 -46 -504
-23 -19 -41 -20 -258 -20 l-234 0 0 -135 0 -135 355 0 355 0 0 140 0 140 245
0 245 0 0 30 c0 17 -16 63 -36 102 -21 42 -32 74 -26 76 24 8 62 44 62 59 0
14 2 14 18 0 14 -13 38 -17 93 -17 129 0 173 41 131 119 -15 28 -28 37 -68 47
l-49 12 -60 -56 c-58 -55 -60 -56 -63 -32 -6 41 -61 153 -90 183 -27 28 -34
29 -94 11 -14 -4 -18 1 -18 25 0 21 5 31 15 31 10 0 15 10 15 28 0 15 32 396
70 846 38 451 68 821 66 823 -2 2 -192 6 -422 10 l-419 6 3 61 c4 96 -44 153
-136 159 -28 1 -41 8 -54 29 -28 44 -63 61 -111 56 -33 -4 -49 0 -66 13 -25
20 -76 25 -100 10 -10 -6 -27 -3 -52 10 -48 24 -104 24 -152 -2z m-149 -415
c2 -12 11 -29 20 -37 23 -19 102 -32 102 -15 0 6 11 1 25 -12 24 -22 25 -29
25 -142 0 -117 0 -119 -25 -130 -14 -6 -25 -17 -25 -25 0 -9 -13 -13 -40 -13
-33 0 -40 3 -40 20 0 17 7 20 40 20 29 0 40 4 40 15 0 12 -28 15 -172 17 -155
3 -173 5 -176 21 -3 16 10 17 172 17 169 0 176 1 176 20 0 19 -7 20 -165 20
-158 0 -165 1 -165 20 0 19 7 20 165 20 158 0 165 1 165 20 0 20 -7 20 -440
20 l-440 0 0 -565 0 -565 135 0 c102 0 135 -3 135 -12 -1 -10 -27 -185 -30
-195 0 -2 -294 9 -297 11 -1 1 -20 319 -42 706 -22 388 -42 724 -43 748 l-3
42 450 -2 450 -3 3 -21z m1558 3 c2 -2 -22 -294 -53 -650 -32 -355 -59 -644
-61 -642 -2 2 -13 50 -24 107 -11 56 -30 126 -44 154 -24 51 -24 52 -24 392
l0 342 -180 0 -180 0 0 75 0 75 -105 0 c-118 0 -132 8 -101 60 9 16 16 45 16
66 l0 37 377 -6 c207 -4 378 -8 379 -10z m-1293 -138 c12 -19 -25 -104 -48
-113 -12 -4 -15 8 -15 65 0 70 0 70 26 67 15 -2 32 -10 37 -19z m-883 -69 c0
-17 -7 -20 -45 -20 -38 0 -45 3 -45 20 0 17 7 20 45 20 38 0 45 -3 45 -20z
m378 -2 c-3 -21 -9 -23 -85 -26 -83 -3 -83 -3 -83 23 0 25 1 25 86 25 83 0 85
-1 82 -22z m-28 -73 l0 -25 -100 0 c-90 0 -100 2 -100 18 0 10 3 22 7 25 3 4
48 7 100 7 93 0 93 0 93 -25z m-350 -5 c0 -17 -7 -20 -45 -20 -38 0 -45 3 -45
20 0 17 7 20 45 20 38 0 45 -3 45 -20z m0 -70 c0 -17 -7 -20 -45 -20 -38 0
-45 3 -45 20 0 17 7 20 45 20 38 0 45 -3 45 -20z m628 -2 c-3 -22 -6 -23 -140
-26 l-138 -3 0 26 0 25 141 0 c140 0 140 0 137 -22z m700 0 c3 -14 -3 -18 -27
-18 -29 0 -41 17 -24 34 13 13 48 1 51 -16z m-578 -57 c0 -5 3 -16 6 -25 5
-14 -10 -16 -130 -16 l-136 0 0 25 0 25 130 0 c72 0 130 -4 130 -9z m568 2
c139 -6 152 -8 152 -25 0 -16 -9 -18 -100 -18 l-100 0 0 -67 c0 -113 0 -113
87 -113 71 0 74 -1 71 -22 -3 -20 -10 -23 -51 -26 -40 -3 -55 2 -82 22 -33 25
-37 26 -199 26 -160 0 -166 -1 -202 -25 -20 -14 -47 -25 -60 -25 -19 0 -24 5
-24 25 0 24 3 25 55 25 42 0 55 3 55 15 0 13 -38 15 -285 15 -278 0 -285 0
-285 20 0 20 7 20 285 20 l285 0 0 80 0 80 123 0 c68 0 192 -3 275 -7z m-1318
-23 c0 -17 -7 -20 -45 -20 -38 0 -45 3 -45 20 0 17 7 20 45 20 38 0 45 -3 45
-20z m1690 -65 c0 -22 -4 -25 -40 -25 -36 0 -40 3 -40 25 0 23 4 25 40 25 36
0 40 -2 40 -25z m-1690 -10 c0 -23 -4 -25 -45 -25 -41 0 -45 2 -45 25 0 23 4
25 45 25 41 0 45 -2 45 -25z m428 3 c-3 -22 -8 -23 -100 -26 l-98 -3 0 26 0
25 101 0 c98 0 100 0 97 -22z m365 -3 l18 -25 -171 0 -170 0 0 25 0 25 153 0
c150 -1 152 -1 170 -25z m-475 -72 c3 -22 1 -23 -82 -23 -85 0 -86 0 -86 25 0
26 0 26 83 23 76 -3 82 -5 85 -25z m1512 2 l0 -26 -107 3 c-103 3 -108 4 -111
26 -3 22 -2 22 107 22 l111 0 0 -25z m-1830 -5 c0 -17 -7 -20 -45 -20 -38 0
-45 3 -45 20 0 17 7 20 45 20 38 0 45 -3 45 -20z m0 -75 c0 -23 -4 -25 -45
-25 -41 0 -45 2 -45 25 0 23 4 25 45 25 41 0 45 -2 45 -25z m760 0 l0 -25
-120 0 -120 0 0 25 0 25 120 0 120 0 0 -25z m-240 -70 l0 -25 -140 0 c-129 0
-140 1 -140 18 0 10 3 22 7 25 3 4 66 7 140 7 l133 0 0 -25z m-520 -5 c0 -17
-7 -20 -45 -20 -38 0 -45 3 -45 20 0 17 7 20 45 20 38 0 45 -3 45 -20z m730 3
c-19 -9 -65 -18 -102 -21 -64 -4 -68 -4 -68 17 0 20 4 21 103 20 101 -1 102
-1 67 -16z m1060 -68 c0 -30 -2 -30 -66 -9 -75 25 -75 34 -1 34 65 0 67 -1 67
-25z m-1790 -10 c0 -23 -4 -25 -45 -25 -41 0 -45 2 -45 25 0 23 4 25 45 25 41
0 45 -2 45 -25z m529 21 c-2 -2 -29 -11 -59 -19 -30 -9 -65 -19 -77 -23 -20
-5 -23 -3 -23 20 0 26 0 26 82 26 45 0 79 -2 77 -4z m-529 -96 c0 -17 -7 -20
-45 -20 -38 0 -45 3 -45 20 0 17 7 20 45 20 38 0 45 -3 45 -20z m0 -75 c0 -23
-4 -25 -45 -25 -41 0 -45 2 -45 25 0 23 4 25 45 25 41 0 45 -2 45 -25z m0 -75
c0 -17 -7 -20 -45 -20 -38 0 -45 3 -45 20 0 17 7 20 45 20 38 0 45 -3 45 -20z
m0 -75 c0 -23 -4 -25 -45 -25 -41 0 -45 2 -45 25 0 23 4 25 45 25 41 0 45 -2
45 -25z m167 3 c-3 -8 -6 -5 -6 6 -1 11 2 17 5 13 3 -3 4 -12 1 -19z m-167
-78 c0 -17 -7 -20 -45 -20 -38 0 -45 3 -45 20 0 17 7 20 45 20 38 0 45 -3 45
-20z"/>
<path d="M2628 2493 c-36 -64 -33 -164 7 -211 30 -35 41 -23 19 20 -22 43 -23
133 -1 175 20 38 21 43 4 43 -7 0 -20 -12 -29 -27z"/>
<path d="M2705 2460 c-8 -14 3 -30 21 -30 8 0 14 9 14 20 0 21 -24 28 -35 10z"/>
<path d="M2707 2343 c-14 -13 -6 -33 13 -33 13 0 20 7 20 20 0 19 -20 27 -33
13z"/>
</g>
</svg>
