<?xml version="1.0" standalone="no"?>
<!DOCTYPE svg PUBLIC "-//W3C//DTD SVG 20010904//EN"
 "http://www.w3.org/TR/2001/REC-SVG-20010904/DTD/svg10.dtd">
<svg version="1.0" xmlns="http://www.w3.org/2000/svg"
 width="500.000000pt" height="500.000000pt" viewBox="0 0 500.000000 500.000000"
 preserveAspectRatio="xMidYMid meet">

<g transform="translate(0.000000,500.000000) scale(0.100000,-0.100000)"
fill="#000000" stroke="none">
<path d="M1214 3551 c-52 -23 -54 -35 -54 -327 l0 -272 26 -31 26 -31 -71 0
c-81 0 -88 -9 -45 -59 l26 -31 485 0 485 0 29 29 c49 49 40 61 -45 61 l-74 0
29 29 29 29 0 276 c0 271 0 275 -22 300 l-23 25 -390 6 c-236 3 -398 2 -411
-4z m756 -326 l0 -245 -355 0 -355 0 0 245 0 245 355 0 355 0 0 -245z m-330
-309 c6 -8 10 -25 8 -38 -6 -42 -78 -32 -78 11 0 37 46 55 70 27z"/>
<path d="M1822 2472 c-40 -114 -72 -210 -72 -214 0 -5 20 -8 43 -8 42 0 44 1
56 40 l12 41 86 -3 86 -3 12 -35 c11 -32 15 -35 57 -38 l45 -3 -75 216 -76
215 -50 0 -51 0 -73 -208z m153 18 c14 -40 25 -77 25 -82 0 -4 -25 -8 -55 -8
-30 0 -55 3 -55 7 0 15 52 164 56 160 2 -2 15 -37 29 -77z"/>
<path d="M2200 2340 l0 -250 40 0 40 0 0 106 0 105 33 -25 c43 -33 114 -35
163 -6 70 44 94 158 51 240 -42 80 -153 108 -216 54 l-31 -26 0 26 c0 24 -4
26 -40 26 l-40 0 0 -250z m213 168 c35 -18 46 -40 47 -89 0 -37 -5 -52 -26
-73 -49 -48 -124 -28 -143 39 -24 89 48 163 122 123z"/>
<path d="M2660 2567 c-101 -67 -101 -227 0 -294 39 -27 125 -31 170 -8 28 15
70 60 70 76 0 15 -84 9 -104 -6 -32 -24 -81 -19 -105 11 -12 15 -21 31 -21 35
0 5 57 9 126 9 l127 0 -5 51 c-6 56 -28 93 -78 127 -46 31 -134 31 -180 -1z
m147 -69 c42 -39 31 -48 -57 -48 -87 0 -95 6 -55 45 31 32 80 33 112 3z"/>
<path d="M2980 2420 l0 -170 40 0 40 0 0 110 c0 104 1 112 25 135 30 31 77 33
105 5 18 -18 20 -33 20 -135 l0 -115 45 0 45 0 0 115 c0 128 -11 169 -55 203
-36 29 -108 30 -152 2 -33 -20 -33 -20 -33 0 0 17 -7 20 -40 20 l-40 0 0 -170z"/>
<path d="M3429 2567 c-46 -30 -69 -80 -69 -147 0 -103 59 -170 151 -170 36 0
55 6 78 26 l31 26 0 -26 c0 -24 3 -26 45 -26 l45 0 0 170 0 170 -45 0 c-38 0
-45 -3 -45 -20 0 -20 0 -20 -32 0 -46 28 -115 26 -159 -3z m162 -76 c85 -86
-27 -225 -118 -147 -24 21 -28 32 -28 76 0 44 4 55 28 76 39 33 81 31 118 -5z"/>
<path d="M3834 2581 c-32 -14 -64 -60 -64 -93 0 -41 37 -74 99 -87 68 -14 91
-27 91 -51 0 -20 -27 -40 -54 -40 -9 0 -25 9 -36 20 -13 13 -33 20 -60 20 -49
0 -52 -16 -11 -62 25 -28 35 -32 93 -36 100 -6 148 26 148 101 0 44 -31 72
-95 88 -87 20 -120 55 -76 79 29 15 49 12 71 -10 13 -13 33 -20 60 -20 49 0
52 16 11 62 -26 29 -35 32 -92 35 -35 1 -74 -1 -85 -6z"/>
<path d="M1780 1856 l0 -216 88 0 c49 0 111 7 138 15 176 52 195 302 30 387
-32 17 -65 22 -148 26 l-108 5 0 -217z m221 121 c44 -30 59 -60 59 -125 0 -94
-44 -139 -141 -144 l-54 -3 -3 148 -3 147 54 0 c40 0 63 -6 88 -23z"/>
<path d="M2262 1960 c-50 -31 -72 -75 -72 -145 0 -112 57 -175 158 -175 64 0
120 27 146 71 l17 29 -49 0 c-32 0 -54 -5 -62 -15 -28 -33 -111 -9 -123 35 -5
19 -1 20 120 20 l125 0 -4 53 c-8 96 -67 147 -170 147 -35 0 -64 -7 -86 -20z
m146 -70 c42 -40 30 -50 -58 -50 l-81 0 16 29 c8 16 20 31 27 34 30 12 75 6
96 -13z"/>
<path d="M2542 1968 c3 -7 31 -84 63 -171 l59 -158 54 3 54 3 59 160 c32 88
59 163 59 168 0 4 -19 7 -43 7 l-43 0 -43 -132 -44 -133 -44 133 -45 132 -45
0 c-32 0 -44 -4 -41 -12z"/>
<path d="M2968 1964 c-34 -18 -48 -43 -48 -88 0 -44 30 -69 103 -86 69 -17 87
-27 87 -50 0 -39 -65 -53 -95 -20 -25 27 -95 29 -95 2 0 -23 34 -60 67 -73 37
-14 111 -11 148 6 40 19 58 51 53 95 -4 42 -34 65 -118 88 -70 19 -89 43 -54
69 25 19 51 16 74 -7 13 -13 33 -20 60 -20 22 0 40 2 40 5 0 20 -35 67 -60 80
-37 19 -127 19 -162 -1z"/>
</g>
</svg>
