<svg width="458" height="460" viewBox="0 0 458 460" fill="none" xmlns="http://www.w3.org/2000/svg">
<g opacity="0.4">
<mask id="mask0_183_15" style="mask-type:alpha" maskUnits="userSpaceOnUse" x="0" y="0" width="458" height="460">
<rect width="458" height="460" transform="matrix(-1 0 0 1 458 0)" fill="url(#paint0_linear_183_15)"/>
</mask>
<g mask="url(#mask0_183_15)">
<path d="M395.804 278.932L395.994 278.469L395.804 278.932C375.546 270.606 354.472 262.719 333.134 254.789C331.459 254.167 329.782 253.544 328.105 252.921C308.408 245.604 288.524 238.219 268.895 230.388C226.295 213.393 184.869 194.291 149.108 169.22C124.584 152.028 97.581 128.444 81.9371 102.592C80.8941 100.87 78.76 96.6935 76.4095 92.0935C75.6683 90.6429 74.9055 89.1501 74.1486 87.6789C72.5652 84.6013 71.0042 81.6107 69.7087 79.2731C69.0608 78.1038 68.4823 77.1034 68.0026 76.3393C67.6939 75.8476 67.4393 75.4757 67.2425 75.2219C61.5264 80.2343 53.9401 89.3954 46.8978 99.2503C39.7053 109.315 33.1173 120.052 29.6972 127.749C24.1924 140.155 25.5389 152.58 29.8177 163.661C34.0993 174.749 41.3067 184.461 47.465 191.386L47.0914 191.719L47.4651 191.386C67.6767 214.118 96.5852 232.048 127.739 247.413C149.782 258.286 172.915 267.858 194.861 276.939C203.934 280.694 212.804 284.364 221.311 288.008L221.114 288.468L221.311 288.008C234.657 293.726 250.035 299.49 266.109 305.516C277.95 309.954 290.168 314.535 302.231 319.342C330.632 330.661 358.127 343.226 377.52 358.104C386.161 364.732 389.774 369.555 391.76 373.588C392.607 375.309 393.155 376.88 393.666 378.348C393.75 378.59 393.834 378.829 393.917 379.066C394.458 380.596 395.01 382.028 395.895 383.482C397.943 382.104 400.84 379.237 404.127 375.42C407.628 371.355 411.531 366.26 415.256 360.865C418.982 355.469 422.524 349.78 425.306 344.526C428.093 339.262 430.097 334.472 430.776 330.865L431.267 330.958L430.776 330.865C433.604 315.847 429.969 304.995 423.114 296.841C416.237 288.661 406.083 283.156 395.804 278.932Z" stroke="#F09802"/>
<path d="M439.351 236.297L439.352 236.297C444.723 243.093 447.002 248.474 448.478 252.892C448.822 253.922 449.122 254.899 449.406 255.823L449.465 256.013C449.767 256.996 450.052 257.917 450.358 258.791C450.875 260.267 451.445 261.594 452.236 262.822C452.62 261.985 452.975 260.846 453.297 259.437C453.716 257.6 454.068 255.348 454.358 252.804C454.939 247.716 455.271 241.491 455.414 235.129C455.701 222.398 455.233 209.179 454.514 203.504L454.956 203.448L454.514 203.504C452.042 183.98 448.756 168.306 441.084 152.519C428.918 127.494 408.556 110.772 384.605 98.5547C360.645 86.3326 333.128 78.634 306.684 71.6386C304.489 71.058 302.301 70.4822 300.124 69.909C276.091 63.5832 253.27 57.5764 235.333 48.9454C215.88 39.5843 202.058 27.0815 198.694 7.63069C195.426 7.22945 190.524 7.77498 184.786 8.93812C178.854 10.1407 172.09 11.99 165.436 14.0728C152.115 18.2425 139.302 23.3269 134.53 25.9934C126.446 30.5148 118.753 40.057 121.422 52.9294C122.213 56.7382 124.906 61.6196 127.993 66.2952C131.063 70.9443 134.478 75.3247 136.674 78.142L136.688 78.1597L136.688 78.1602C170.087 121.115 223.088 144.579 276.302 162.865C289.601 167.435 302.907 171.68 315.919 175.825L316.639 176.055C329.399 180.119 341.871 184.092 353.761 188.185C377.982 196.521 399.828 205.364 416.816 216.515L416.816 216.515C424.834 221.781 433.646 229.085 439.351 236.297Z" stroke="#E97503"/>
<path d="M323.305 400.565L323.305 400.565C318.95 397.836 309.026 393.666 296.055 388.762C283.104 383.866 267.17 378.258 250.835 372.652C236.111 367.6 221.058 362.548 207.578 358.025C191.161 352.516 177.077 347.789 168.762 344.798C132.756 331.847 103.66 318.212 73.3768 300.375C45.419 283.905 29.801 267.089 20.3387 253.757C15.6095 247.095 12.4225 241.308 10.0082 236.892L9.84442 236.592C8.70728 234.511 7.74988 232.759 6.87946 231.37C6.11859 230.155 5.44797 229.257 4.8136 228.668C4.76169 228.721 4.70938 228.764 4.65524 228.8C4.64566 228.806 4.6358 228.813 4.62589 228.818C4.60834 228.881 4.58588 228.974 4.55597 229.112C4.48807 229.424 4.39111 229.925 4.23468 230.742L4.10498 243.763C6.85284 310.706 44.0688 374.425 96.7766 413.853L96.4771 414.253L96.7767 413.853C124.185 434.361 155.905 447.185 195.082 454.651C214.608 458.372 247.675 458.023 276.719 453.013C291.238 450.508 304.719 446.844 314.983 441.959C325.275 437.062 332.2 431.003 333.855 423.78C336.515 412.144 329.908 404.697 323.305 400.565Z" stroke="#FDD303"/>
</g>
</g>
<defs>
<linearGradient id="paint0_linear_183_15" x1="458" y1="0" x2="-1.99563" y2="457.996" gradientUnits="userSpaceOnUse">
<stop offset="0.130461" stop-color="#D9D9D9" stop-opacity="0"/>
<stop offset="1" stop-color="#D9D9D9"/>
</linearGradient>
</defs>
</svg>
