<svg width="288" height="356" viewBox="0 0 288 356" fill="none" xmlns="http://www.w3.org/2000/svg">
<g opacity="0.4">
<mask id="mask0_18_1259" style="mask-type:alpha" maskUnits="userSpaceOnUse" x="-172" y="0" width="460" height="460">
<rect x="-172" width="460" height="460" fill="url(#paint0_linear_18_1259)"/>
</mask>
<g mask="url(#mask0_18_1259)">
<path d="M66.6895 300.008L66.8864 300.468L66.6895 300.008C53.3429 305.726 37.9651 311.49 21.8905 317.516C10.0502 321.954 -2.16824 326.535 -14.2314 331.342C-42.6322 342.661 -70.1268 355.226 -89.52 370.104C-98.1611 376.732 -101.774 381.555 -103.759 385.588C-104.607 387.309 -105.155 388.88 -105.666 390.348C-105.75 390.59 -105.834 390.829 -105.917 391.066C-106.458 392.596 -107.009 394.028 -107.895 395.482C-109.942 394.104 -112.84 391.237 -116.127 387.42C-119.628 383.355 -123.531 378.26 -127.256 372.865C-130.982 367.469 -134.524 361.78 -137.306 356.526C-140.093 351.262 -142.097 346.472 -142.776 342.865C-145.603 327.847 -141.969 316.995 -135.114 308.841C-128.236 300.661 -118.083 295.156 -107.804 290.932L-107.994 290.469L-107.804 290.932C-87.5463 282.606 -66.4723 274.719 -45.1335 266.789C-43.4587 266.167 -41.7823 265.544 -40.1045 264.921C-20.4078 257.604 -0.523575 250.219 19.1052 242.388C61.7053 225.393 103.131 206.291 138.892 181.22C163.416 164.028 190.419 140.444 206.063 114.592C207.106 112.87 209.24 108.694 211.59 104.095C212.331 102.644 213.094 101.15 213.852 99.6789C215.435 96.6013 216.996 93.6107 218.291 91.2731C218.939 90.1038 219.518 89.1034 219.997 88.3393C220.306 87.8476 220.561 87.4757 220.758 87.2219C226.474 92.2343 234.06 101.395 241.102 111.25C248.295 121.315 254.883 132.052 258.303 139.749C263.808 152.155 262.461 164.58 258.182 175.661C253.901 186.749 246.693 196.461 240.535 203.386C220.323 226.118 191.415 244.048 160.261 259.413C138.218 270.286 115.085 279.858 93.1389 288.939C84.0659 292.694 75.1958 296.364 66.6895 300.008Z" stroke="#F09802"/>
<path d="M-162.358 270.791C-162.875 272.267 -163.445 273.594 -164.236 274.822C-164.62 273.985 -164.975 272.846 -165.297 271.437C-165.716 269.6 -166.068 267.348 -166.358 264.804C-166.939 259.716 -167.271 253.491 -167.414 247.129C-167.701 234.398 -167.233 221.179 -166.514 215.504L-167.01 215.441L-166.514 215.504C-164.042 195.98 -160.756 180.306 -153.084 164.519C-140.918 139.494 -120.556 122.772 -96.6048 110.555C-72.6452 98.3326 -45.1277 90.634 -18.6839 83.6386C-16.4891 83.0579 -14.3015 82.4821 -12.1238 81.909C11.9091 75.5832 34.7303 69.5764 52.6665 60.9454C72.1201 51.5843 85.9419 39.0815 89.3064 19.6307C92.5738 19.2294 97.4762 19.775 103.214 20.9381C109.146 22.1407 115.91 23.99 122.564 26.0728C135.885 30.2425 148.698 35.3269 153.47 37.9934C161.554 42.5148 169.247 52.057 166.578 64.9294C165.787 68.7382 163.094 73.6196 160.007 78.2952C156.937 82.9443 153.522 87.3247 151.326 90.142L151.312 90.1597L151.312 90.1602C117.913 133.115 64.9122 156.579 11.6984 174.865C-1.60075 179.435 -14.9066 183.68 -27.9189 187.825L-28.6377 188.054C-41.3976 192.119 -53.8703 196.092 -65.7609 200.185C-89.9825 208.521 -111.828 217.364 -128.816 228.515L-128.816 228.515C-136.834 233.781 -145.646 241.085 -151.351 248.297L-151.352 248.297C-156.723 255.093 -159.002 260.474 -160.478 264.892C-160.822 265.922 -161.122 266.899 -161.406 267.823L-161.465 268.013C-161.767 268.996 -162.052 269.917 -162.358 270.791Z" stroke="#E97503"/>
<path d="M-35.3049 412.565L-35.3047 412.565C-30.9499 409.836 -21.0256 405.666 -8.05492 400.762C4.89566 395.866 20.8305 390.258 37.1652 384.652C51.8894 379.6 66.9421 374.548 80.4218 370.025C96.8392 364.516 110.923 359.789 119.238 356.798C155.244 343.847 184.34 330.212 214.623 312.375C242.581 295.905 258.199 279.089 267.661 265.757C272.39 259.095 275.577 253.308 277.992 248.892L278.156 248.592C279.293 246.511 280.25 244.759 281.121 243.37C281.881 242.155 282.552 241.257 283.186 240.668C283.238 240.721 283.291 240.764 283.345 240.8C283.354 240.806 283.364 240.813 283.374 240.818C283.392 240.881 283.414 240.974 283.444 241.112C283.512 241.424 283.609 241.925 283.765 242.742L283.895 255.763C281.147 322.706 243.931 386.425 191.223 425.853L191.523 426.253L191.223 425.853C163.815 446.361 132.095 459.185 92.9184 466.651C73.3916 470.372 40.3246 470.023 11.2812 465.013C-3.23808 462.508 -16.7188 458.844 -26.9832 453.959C-37.2746 449.062 -44.2003 443.003 -45.8549 435.78C-48.5152 424.144 -41.9083 416.697 -35.3049 412.565Z" stroke="#FDD303"/>
</g>
</g>
<defs>
<linearGradient id="paint0_linear_18_1259" x1="288" y1="0" x2="-172" y2="460" gradientUnits="userSpaceOnUse">
<stop stop-color="#D9D9D9" stop-opacity="0"/>
<stop offset="0.648958" stop-color="#D9D9D9"/>
</linearGradient>
</defs>
</svg>
