<svg width="48" height="48" viewBox="0 0 48 48" fill="none" xmlns="http://www.w3.org/2000/svg">
<path fill-rule="evenodd" clip-rule="evenodd" d="M6.39369 40.174C6.85135 39.4706 6.53433 38.8447 8.35927 37.4395C12.462 34.2797 20.004 32.0952 24.922 29.98C31.0878 27.3287 39.0835 24.5329 43.3861 19.675C44.6973 18.1947 46.4629 15.5156 45.2802 12.8398C44.5502 11.1905 42.4748 8.25197 41.2433 7.19193C41.0206 7.39267 39.9321 9.67596 39.6435 10.1542C37.9893 12.8985 35.1312 15.4054 32.5315 17.235C24.9529 22.5687 14.9681 25.3661 6.36687 28.915C4.18099 29.8168 2.01869 31.2767 2.6243 34.5058C2.91856 36.075 5.48731 39.6224 6.39369 40.174Z" fill="#F09802"/>
<path fill-rule="evenodd" clip-rule="evenodd" d="M0.393607 27.3507C0.851267 26.7256 0.677309 25.8924 1.80805 24.4562C2.40878 23.694 3.33873 22.9196 4.18658 22.3606C11.3734 17.6251 26.8135 16.7894 33.9215 7.61218C34.3873 7.01239 35.379 5.73609 35.5513 4.90291C35.8407 3.50176 35.0051 2.46538 34.1344 1.97657C33.1118 1.40289 28.6791 -0.194925 27.2549 0.0196946C25.8901 8.29684 6.72444 4.7601 1.53491 15.4764C0.717142 17.1656 0.367595 18.8418 0.10503 20.9235C-0.0486073 22.1402 -0.0933175 26.5681 0.393607 27.3507V27.3507Z" fill="#E97503"/>
<path fill-rule="evenodd" clip-rule="evenodd" d="M47.8812 23.5332C47.1764 24.0588 46.4895 27.7016 40.57 31.2024C37.3599 33.1005 34.2758 34.5515 30.4584 35.9298C27.2459 37.0902 15.9206 40.6987 14.051 41.8747C13.3405 42.321 12.6186 43.1338 12.908 44.4044C13.6331 47.5821 23.5342 48.5287 27.6938 47.7331C31.8566 46.9366 35.2301 45.5681 38.146 43.3778C43.7501 39.1695 47.7081 32.3677 47.9999 25.2192L47.9861 23.8262C47.9178 23.4679 47.9519 23.6556 47.8812 23.5332V23.5332Z" fill="#FDD303"/>
</svg>
