<svg width="288" height="356" viewBox="0 0 288 356" fill="none" xmlns="http://www.w3.org/2000/svg">
<g opacity="0.4">
<mask id="mask0_18_1273" style="mask-type:alpha" maskUnits="userSpaceOnUse" x="0" y="0" width="460" height="460">
<rect width="460" height="460" transform="matrix(-1 0 0 1 460 0)" fill="url(#paint0_linear_18_1273)"/>
</mask>
<g mask="url(#mask0_18_1273)">
<path d="M395.804 290.932L395.994 290.469L395.804 290.932C375.546 282.606 354.472 274.719 333.134 266.789C331.459 266.167 329.782 265.544 328.104 264.921C308.408 257.604 288.524 250.219 268.895 242.388C226.295 225.393 184.869 206.291 149.108 181.22C124.584 164.028 97.581 140.444 81.937 114.592C80.894 112.87 78.76 108.694 76.4095 104.094C75.6682 102.643 74.9054 101.15 74.1485 99.6789C72.5652 96.6013 71.0041 93.6107 69.7087 91.2731C69.0607 90.1038 68.4822 89.1034 68.0026 88.3393C67.6939 87.8476 67.4392 87.4757 67.2425 87.2219C61.5264 92.2343 53.94 101.395 46.8977 111.25C39.7052 121.315 33.1173 132.052 29.6971 139.749C24.1924 152.155 25.5388 164.58 29.8177 175.661C34.0992 186.749 41.3067 196.461 47.465 203.386L47.0913 203.719L47.465 203.386C67.6766 226.118 96.5851 244.048 127.739 259.413C149.782 270.286 172.915 279.858 194.861 288.939C203.934 292.694 212.804 296.364 221.31 300.008L221.114 300.468L221.311 300.008C234.657 305.726 250.035 311.49 266.109 317.516C277.95 321.954 290.168 326.535 302.231 331.342C330.632 342.661 358.127 355.226 377.52 370.104C386.161 376.732 389.774 381.555 391.759 385.588C392.607 387.309 393.155 388.88 393.666 390.348C393.75 390.59 393.834 390.829 393.917 391.066C394.458 392.596 395.009 394.028 395.895 395.482C397.942 394.104 400.84 391.237 404.127 387.42C407.628 383.355 411.531 378.26 415.256 372.865C418.982 367.469 422.524 361.78 425.306 356.526C428.093 351.262 430.097 346.472 430.776 342.865L431.267 342.958L430.776 342.865C433.603 327.847 429.969 316.995 423.114 308.841C416.236 300.661 406.083 295.156 395.804 290.932Z" stroke="#F09802"/>
<path d="M439.351 248.297L439.352 248.297C444.723 255.093 447.002 260.474 448.478 264.892C448.822 265.922 449.122 266.899 449.406 267.823L449.465 268.013C449.767 268.996 450.052 269.917 450.358 270.791C450.875 272.267 451.445 273.594 452.236 274.822C452.62 273.985 452.975 272.846 453.297 271.437C453.716 269.6 454.068 267.348 454.358 264.804C454.939 259.716 455.271 253.491 455.414 247.129C455.701 234.398 455.233 221.179 454.514 215.504L454.956 215.448L454.514 215.504C452.042 195.98 448.756 180.306 441.084 164.519C428.918 139.494 408.556 122.772 384.605 110.555C360.645 98.3326 333.128 90.634 306.684 83.6386C304.489 83.058 302.301 82.4822 300.124 81.909C276.091 75.5832 253.27 69.5764 235.333 60.9454C215.88 51.5843 202.058 39.0815 198.694 19.6307C195.426 19.2294 190.524 19.775 184.786 20.9381C178.854 22.1407 172.09 23.99 165.436 26.0728C152.115 30.2425 139.302 35.3269 134.53 37.9934C126.446 42.5148 118.753 52.057 121.422 64.9294C122.213 68.7382 124.906 73.6196 127.993 78.2952C131.063 82.9443 134.478 87.3247 136.674 90.142L136.688 90.1597L136.688 90.1602C170.087 133.115 223.088 156.579 276.302 174.865C289.601 179.435 302.907 183.68 315.919 187.825L316.639 188.055C329.399 192.119 341.871 196.092 353.761 200.185C377.982 208.521 399.828 217.364 416.816 228.515L416.816 228.515C424.834 233.781 433.646 241.085 439.351 248.297Z" stroke="#E97503"/>
<path d="M323.305 412.565L323.305 412.565C318.95 409.836 309.026 405.666 296.055 400.762C283.104 395.866 267.17 390.258 250.835 384.652C236.111 379.6 221.058 374.548 207.578 370.025C191.161 364.516 177.077 359.789 168.762 356.798C132.756 343.847 103.66 330.212 73.3768 312.375C45.419 295.905 29.801 279.089 20.3387 265.757C15.6095 259.095 12.4225 253.308 10.0082 248.892L9.84296 248.589C8.70639 246.51 7.74948 244.759 6.87946 243.37C6.11859 242.155 5.44797 241.257 4.8136 240.668C4.76169 240.721 4.70938 240.764 4.65524 240.8C4.64566 240.806 4.6358 240.813 4.62589 240.818C4.60834 240.881 4.58591 240.974 4.55597 241.112C4.4881 241.424 4.39111 241.925 4.23468 242.742L4.10498 255.763C6.85284 322.706 44.0688 386.425 96.7766 425.853L96.4771 426.253L96.7767 425.853C124.185 446.361 155.905 459.185 195.082 466.651C214.608 470.372 247.675 470.023 276.719 465.013C291.238 462.508 304.719 458.844 314.983 453.959C325.275 449.062 332.2 443.003 333.855 435.78C336.515 424.144 329.908 416.697 323.305 412.565Z" stroke="#FDD303"/>
</g>
</g>
<defs>
<linearGradient id="paint0_linear_18_1273" x1="460" y1="0" x2="0" y2="460" gradientUnits="userSpaceOnUse">
<stop stop-color="#D9D9D9" stop-opacity="0"/>
<stop offset="0.648958" stop-color="#D9D9D9"/>
</linearGradient>
</defs>
</svg>
