<svg width="458" height="460" viewBox="0 0 458 460" fill="none" xmlns="http://www.w3.org/2000/svg">
<g opacity="0.4">
<mask id="mask0_183_15" style="mask-type:alpha" maskUnits="userSpaceOnUse" x="0" y="0" width="458" height="460">
<rect width="458" height="460" fill="url(#paint0_linear_183_15)"/>
</mask>
<g mask="url(#mask0_183_15)">
<path d="M236.689 288.008L236.886 288.468L236.689 288.008C223.343 293.726 207.965 299.49 191.89 305.516C180.05 309.954 167.832 314.535 155.769 319.342C127.368 330.661 99.8731 343.226 80.4799 358.104C71.8389 364.732 68.2262 369.555 66.2405 373.588C65.3927 375.309 64.8454 376.88 64.334 378.348C64.2497 378.59 64.1664 378.829 64.0829 379.066C63.5424 380.596 62.9905 382.028 62.1046 383.482C60.0575 382.104 57.1599 379.237 53.8728 375.42C50.372 371.355 46.469 366.26 42.7438 360.865C39.0184 355.469 35.4761 349.78 32.6942 344.526C29.9069 339.262 27.903 334.472 27.224 330.865C24.3965 315.847 28.0306 304.995 34.886 296.841C41.7635 288.661 51.9173 283.156 62.196 278.932L62.006 278.469L62.1961 278.932C82.4536 270.606 103.528 262.719 124.866 254.789C126.541 254.167 128.218 253.544 129.895 252.921C149.592 245.604 169.476 238.219 189.105 230.388C231.705 213.393 273.131 194.291 308.892 169.22C333.416 152.028 360.419 128.444 376.063 102.592C377.106 100.87 379.24 96.6942 381.59 92.0946C382.331 90.6436 383.094 89.1505 383.851 87.6789C385.435 84.6013 386.996 81.6107 388.291 79.2731C388.939 78.1038 389.518 77.1034 389.997 76.3393C390.306 75.8476 390.561 75.4757 390.757 75.2219C396.474 80.2343 404.06 89.3954 411.102 99.2503C418.295 109.315 424.883 120.052 428.303 127.749C433.808 140.155 432.461 152.58 428.182 163.661C423.901 174.749 416.693 184.461 410.535 191.386C390.323 214.118 361.415 232.048 330.261 247.413C308.218 258.286 285.085 267.858 263.139 276.939C254.066 280.694 245.196 284.364 236.689 288.008Z" stroke="#F09802"/>
<path d="M7.64181 258.791C7.12508 260.267 6.55461 261.594 5.76428 262.822C5.38006 261.985 5.02465 260.846 4.70331 259.437C4.28406 257.6 3.93226 255.348 3.64181 252.804C3.06098 247.716 2.72919 241.491 2.58571 235.129C2.2986 222.398 2.76657 209.179 3.48593 203.504L2.98992 203.441L3.48594 203.504C5.95791 183.98 9.24367 168.306 16.9161 152.519C29.0817 127.494 49.4439 110.772 73.3952 98.5547C97.3548 86.3326 124.872 78.634 151.316 71.6386C153.511 71.0579 155.699 70.4821 157.876 69.909C181.909 63.5832 204.73 57.5764 222.667 48.9454C242.12 39.5843 255.942 27.0815 259.306 7.63069C262.574 7.22945 267.476 7.77498 273.214 8.93812C279.146 10.1407 285.91 11.99 292.564 14.0728C305.885 18.2425 318.698 23.3269 323.47 25.9934C331.554 30.5148 339.247 40.057 336.578 52.9294C335.787 56.7382 333.094 61.6196 330.007 66.2952C326.937 70.9443 323.522 75.3247 321.326 78.142L321.312 78.1597L321.312 78.1602C287.913 121.115 234.912 144.579 181.698 162.865C168.399 167.435 155.093 171.68 142.081 175.825L141.362 176.054C128.602 180.119 116.13 184.092 104.239 188.185C80.0175 196.521 58.1724 205.364 41.1837 216.515L41.1836 216.515C33.1656 221.781 24.3545 229.085 18.6485 236.297L18.6484 236.297C13.2772 243.093 10.998 248.474 9.52206 252.892C9.17809 253.922 8.87787 254.899 8.59378 255.823L8.53534 256.013C8.23318 256.996 7.94786 257.917 7.64181 258.791Z" stroke="#E97503"/>
<path d="M134.695 400.565L134.695 400.565C139.05 397.836 148.974 393.666 161.945 388.762C174.896 383.866 190.83 378.258 207.165 372.652C221.889 367.6 236.942 362.548 250.422 358.025C266.839 352.516 280.923 347.789 289.238 344.798C325.244 331.847 354.34 318.212 384.623 300.375C412.581 283.905 428.199 267.089 437.661 253.757C442.39 247.095 445.577 241.308 447.992 236.892L448.156 236.592C449.293 234.511 450.25 232.759 451.121 231.37C451.881 230.155 452.552 229.257 453.186 228.668C453.238 228.721 453.291 228.764 453.345 228.8C453.354 228.806 453.364 228.813 453.374 228.818C453.392 228.881 453.414 228.974 453.444 229.112C453.512 229.424 453.609 229.925 453.765 230.742L453.895 243.763C451.147 310.706 413.931 374.425 361.223 413.853L361.523 414.253L361.223 413.853C333.815 434.361 302.095 447.185 262.918 454.651C243.392 458.372 210.325 458.023 181.281 453.013C166.762 450.508 153.281 446.844 143.017 441.959C132.725 437.062 125.8 431.003 124.145 423.78C121.485 412.144 128.092 404.697 134.695 400.565Z" stroke="#FDD303"/>
</g>
</g>
<defs>
<linearGradient id="paint0_linear_183_15" x1="458" y1="0" x2="-1.99563" y2="457.996" gradientUnits="userSpaceOnUse">
<stop offset="0.130461" stop-color="#D9D9D9" stop-opacity="0"/>
<stop offset="1" stop-color="#D9D9D9"/>
</linearGradient>
</defs>
</svg>
