<svg width="40" height="40" viewBox="0 0 40 40" fill="none" xmlns="http://www.w3.org/2000/svg">
<g clip-path="url(#clip0_22_569)">
<path fill-rule="evenodd" clip-rule="evenodd" d="M21.365 40H2.20834C1.6228 39.9998 1.06132 39.767 0.647357 39.3529C0.233394 38.9388 0.000854608 38.3772 0.00085465 37.7917V2.20833C0.000745141 1.9183 0.0577864 1.63108 0.168727 1.36311C0.279667 1.09513 0.442323 0.85165 0.647408 0.646566C0.852492 0.441481 1.09598 0.278813 1.36396 0.167872C1.63194 0.0569319 1.91915 -0.000109351 2.20918 1.57378e-07H37.7934C38.0833 1.36717e-07 38.3704 0.0571245 38.6383 0.168114C38.9062 0.279103 39.1496 0.441785 39.3546 0.646858C39.5596 0.851932 39.7222 1.09539 39.833 1.36331C39.9439 1.63123 40.001 1.91837 40.0009 2.20833V37.7917C40.0009 38.3772 39.7683 38.9388 39.3543 39.3529C38.9404 39.767 38.3789 39.9998 37.7934 40H27.6V24.51H32.8L33.5784 18.4733H27.6V14.6192C27.6 12.8708 28.0859 11.68 30.5917 11.68L33.7884 11.6783V6.27917C33.2359 6.20584 31.3383 6.04167 29.13 6.04167C24.5217 6.04167 21.3659 8.855 21.3659 14.0208V18.4733H16.1534V24.51H21.3659V40H21.365Z" fill="#4460A0"/>
</g>
<defs>
<clipPath id="clip0_22_569">
<rect width="40" height="40" fill="white"/>
</clipPath>
</defs>
</svg>
