<svg width="40" height="40" viewBox="0 0 40 40" fill="none" xmlns="http://www.w3.org/2000/svg">
<path d="M39.9883 0H0.0117188C0.00524666 0 0 0.00524666 0 0.0117188V39.9883C0 39.9948 0.00524666 40 0.0117188 40H39.9883C39.9948 40 40 39.9948 40 39.9883V0.0117188C40 0.00524666 39.9948 0 39.9883 0Z" fill="#EE6860"/>
<g clip-path="url(#clip0_22_582)">
<path d="M9.92188 9.92188H30.0781V30.0781H9.92188V9.92188Z" fill="#ECEFF1"/>
<path d="M20 22.1198L30.0781 30.0781V14.3663L20 22.1198Z" fill="#CFD8DC"/>
<path d="M30.918 9.92188H30.0781L20 17.8802L9.92188 9.92188H9.08203C8.41381 9.92188 7.77296 10.1873 7.30045 10.6598C6.82795 11.1323 6.5625 11.7732 6.5625 12.4414V27.5586C6.5625 28.2268 6.82795 28.8677 7.30045 29.3402C7.77296 29.8127 8.41381 30.0781 9.08203 30.0781H9.92188V14.3663L20 22.1181L30.0781 14.3646V30.0781H30.918C31.5862 30.0781 32.227 29.8127 32.6995 29.3402C33.1721 28.8677 33.4375 28.2268 33.4375 27.5586V12.4414C33.4375 11.7732 33.1721 11.1323 32.6995 10.6598C32.227 10.1873 31.5862 9.92188 30.918 9.92188Z" fill="#F44336"/>
</g>
<defs>
<clipPath id="clip0_22_582">
<rect width="26.875" height="26.875" fill="white" transform="translate(6.5625 6.5625)"/>
</clipPath>
</defs>
</svg>
