<svg width="40" height="40" viewBox="0 0 40 40" fill="none" xmlns="http://www.w3.org/2000/svg">
<path d="M37.7778 0H2.22222C0.994923 0 0 0.994923 0 2.22222V37.7778C0 39.0051 0.994923 40 2.22222 40H37.7778C39.0051 40 40 39.0051 40 37.7778V2.22222C40 0.994923 39.0051 0 37.7778 0Z" fill="#117EB8"/>
<path fill-rule="evenodd" clip-rule="evenodd" d="M7.29949 15.4711H12.6456V32.6722H7.29949V15.4711ZM9.97338 6.92057C11.6828 6.92057 13.0717 8.30946 13.0717 10.0189C13.0717 11.73 11.6828 13.1195 9.97338 13.1195C9.56142 13.1273 9.15204 13.0529 8.76916 12.9006C8.38629 12.7483 8.03761 12.5213 7.74351 12.2327C7.44942 11.9441 7.2158 11.5998 7.05632 11.2199C6.89684 10.84 6.8147 10.432 6.8147 10.02C6.8147 9.60798 6.89684 9.20007 7.05632 8.82015C7.2158 8.44023 7.44942 8.09591 7.74351 7.80733C8.03761 7.51875 8.38629 7.29169 8.76916 7.13943C9.15204 6.98717 9.56142 6.91277 9.97338 6.92057ZM15.9989 15.4706H21.1267V17.8211H21.1978C21.9117 16.4689 23.6556 15.0433 26.2562 15.0433C31.6695 15.0433 32.6695 18.6061 32.6695 23.2378V32.6722H27.3267V24.3072C27.3267 22.3128 27.2901 19.7467 24.5489 19.7467C21.7673 19.7467 21.34 21.9195 21.34 24.1633V32.6722H15.9984V15.4711L15.9989 15.4706Z" fill="white"/>
</svg>
