<svg width="448" height="446" viewBox="0 0 448 446" fill="none" xmlns="http://www.w3.org/2000/svg">
<g opacity="0.5">
<path d="M232.408 278.104L232.56 278.46L232.408 278.104C219.191 283.763 203.963 289.468 188.044 295.432C176.319 299.824 164.219 304.357 152.273 309.115C124.148 320.318 96.92 332.753 77.7147 347.478C69.1572 354.038 65.579 358.812 63.6121 362.804C62.7724 364.508 62.2303 366.063 61.7239 367.516C61.6404 367.755 61.5579 367.992 61.4752 368.226C60.9406 369.739 60.3947 371.154 59.5192 372.591C57.4929 371.227 54.6255 368.391 51.3725 364.616C47.9058 360.593 44.0408 355.551 40.3519 350.211C36.6628 344.871 33.1551 339.241 30.4003 334.042C27.6401 328.832 25.656 324.092 24.9838 320.524L24.6531 320.586L24.9837 320.524C22.184 305.662 25.7824 294.924 32.5702 286.855C39.3801 278.76 49.4343 273.312 59.613 269.131L59.4231 268.669L59.613 269.131C79.6737 260.891 100.543 253.086 121.674 245.238C123.333 244.622 124.993 244.006 126.654 243.389C146.16 236.148 165.851 228.838 185.289 221.088C227.475 204.269 268.499 185.364 303.913 160.551C328.199 143.536 354.94 120.195 370.433 94.6083C371.466 92.9043 373.579 88.7712 375.907 84.219C376.641 82.783 377.396 81.3054 378.146 79.8491C379.714 76.8033 381.26 73.8435 382.543 71.5301C383.184 70.373 383.757 69.383 384.232 68.6269C384.536 68.1428 384.787 67.7762 384.981 67.5254C390.641 72.4864 398.152 81.5508 405.124 91.3018C412.246 101.263 418.77 111.889 422.157 119.506C427.607 131.782 426.274 144.078 422.037 155.043C417.798 166.016 410.661 175.627 404.562 182.481L404.936 182.813L404.562 182.481C384.548 204.978 355.921 222.722 325.07 237.929C303.241 248.689 280.333 258.162 258.6 267.15C249.615 270.866 240.831 274.498 232.408 278.104Z" fill="#F09802" stroke="#F09802"/>
<path d="M16.4831 226.928L16.4829 226.928C11.1635 233.655 8.90619 238.981 7.4444 243.354C7.10375 244.373 6.80644 245.34 6.52511 246.255L6.46723 246.443C6.168 247.416 5.88549 248.327 5.58244 249.192C5.07184 250.65 4.50831 251.96 3.72842 253.172C3.34958 252.346 2.99895 251.222 2.68177 249.832C2.26666 248.014 1.9183 245.786 1.63068 243.268C1.05552 238.233 0.72696 232.071 0.584879 225.775C0.30056 213.176 0.763986 200.093 1.4763 194.477L0.980279 194.414L1.47631 194.477C3.92424 175.156 7.17798 159.644 14.7755 144.02C26.8222 119.255 46.9857 102.706 70.7037 90.6149C94.43 78.5191 121.68 70.9 147.867 63.9768C150.04 63.4021 152.207 62.8323 154.363 62.265C178.162 56.0045 200.762 50.0595 218.525 41.5174C237.789 32.2532 251.477 19.8793 254.811 0.628872C258.046 0.232697 262.898 0.772478 268.578 1.92319C274.453 3.11332 281.151 4.9435 287.74 7.00478C300.931 11.1315 313.619 16.1633 318.344 18.8021C326.349 23.2762 333.965 32.718 331.323 45.4545C330.54 49.223 327.874 54.0532 324.816 58.6806C321.776 63.2819 318.394 67.6172 316.219 70.4055L316.206 70.4223L316.206 70.4229C283.133 112.933 230.648 136.155 177.951 154.252C164.781 158.775 151.605 162.976 138.719 167.079L138.008 167.305C125.372 171.328 113.02 175.26 101.244 179.311C77.258 187.561 55.6246 196.313 38.8005 207.349L38.8004 207.349C30.86 212.561 22.134 219.79 16.4831 226.928Z" fill="#E97503" stroke="#E97503"/>
<path d="M131.408 389.509L131.409 389.509C135.721 386.809 145.548 382.682 158.393 377.829C171.218 372.983 186.997 367.433 203.173 361.885C217.754 356.885 232.661 351.886 246.009 347.409C262.267 341.956 276.215 337.279 284.449 334.318C320.105 321.501 348.919 308.007 378.908 290.353C406.595 274.052 422.062 257.409 431.433 244.215C436.116 237.621 439.272 231.894 441.663 227.523L441.826 227.224C442.952 225.166 443.9 223.433 444.761 222.058C445.513 220.858 446.176 219.971 446.803 219.389C446.853 219.439 446.904 219.481 446.957 219.516C446.966 219.522 446.976 219.528 446.985 219.534C447.002 219.596 447.024 219.687 447.053 219.821C447.121 220.131 447.217 220.626 447.371 221.435L447.5 234.32C444.779 300.571 407.925 363.632 355.731 402.652L356.004 403.017L355.731 402.652C328.589 422.948 297.178 435.639 258.383 443.028C239.046 446.71 206.301 446.366 177.54 441.407C163.162 438.928 149.813 435.302 139.649 430.468C129.458 425.621 122.601 419.625 120.963 412.479C118.329 400.967 124.87 393.599 131.408 389.509Z" fill="#FDD303" stroke="#FDD303"/>
</g>
</svg>
