<svg width="45" height="45" viewBox="0 0 45 45" fill="none" xmlns="http://www.w3.org/2000/svg">
<path d="M20.75 3.89711C21.8329 3.2719 23.1671 3.2719 24.25 3.89711L37.7356 11.683C38.8185 12.3082 39.4856 13.4637 39.4856 14.7141V30.2859C39.4856 31.5363 38.8185 32.6918 37.7356 33.317L24.25 41.1029C23.1671 41.7281 21.8329 41.7281 20.75 41.1029L7.26443 33.317C6.18153 32.6918 5.51443 31.5363 5.51443 30.2859V14.7141C5.51443 13.4637 6.18153 12.3082 7.26443 11.683L20.75 3.89711Z" stroke="#000A4A" stroke-width="5"/>
<path d="M20.75 8.89711C21.8329 8.2719 23.1671 8.2719 24.25 8.89711L33.4054 14.183C34.4883 14.8082 35.1554 15.9637 35.1554 17.2141V27.7859C35.1554 29.0363 34.4883 30.1918 33.4054 30.817L24.25 36.1029C23.1671 36.7281 21.8329 36.7281 20.75 36.1029L11.5946 30.817C10.5117 30.1918 9.84456 29.0363 9.84456 27.7859V17.2141C9.84456 15.9637 10.5117 14.8082 11.5946 14.183L20.75 8.89711Z" stroke="white" stroke-width="5"/>
</svg>
