<svg width="40" height="40" viewBox="0 0 40 40" fill="none" xmlns="http://www.w3.org/2000/svg">
<path d="M39.9883 0H0.0117188C0.00524666 0 0 0.00524666 0 0.0117188V39.9883C0 39.9948 0.00524666 40 0.0117188 40H39.9883C39.9948 40 40 39.9948 40 39.9883V0.0117188C40 0.00524666 39.9948 0 39.9883 0Z" fill="#37AEE2"/>
<path d="M15.5469 31.5625C14.6875 31.5625 14.7656 31.25 14.5312 30.4688L12.0312 22.2656L31.1719 11.0156" fill="#C8DAEA"/>
<path d="M15.5469 31.5625C16.0938 31.5625 16.4062 31.25 16.7969 30.9375L20.3125 27.5781L15.9375 24.9219" fill="#A9C9DD"/>
<path d="M15.9375 24.9219L26.4844 32.6563C27.5782 33.3594 28.5157 32.9688 28.8282 31.5625L33.125 11.4063C33.5157 9.68751 32.4219 8.90626 31.25 9.45313L6.17191 19.1406C4.53129 19.7656 4.53129 20.7813 5.85941 21.1719L12.3438 23.2031L27.1875 13.75C27.8907 13.3594 28.5157 13.5156 28.0469 14.0625" fill="#F6FBFE"/>
</svg>
