<svg width="40" height="40" viewBox="0 0 40 40" fill="none" xmlns="http://www.w3.org/2000/svg">
<path d="M39.9883 0H0.0117188C0.00524666 0 0 0.00524666 0 0.0117188V39.9883C0 39.9948 0.00524666 40 0.0117188 40H39.9883C39.9948 40 40 39.9948 40 39.9883V0.0117188C40 0.00524666 39.9948 0 39.9883 0Z" fill="#1DA1F3"/>
<path d="M34.1406 11.875C33.2145 12.4894 32.127 12.8156 31.0156 12.8125C32.2039 12.1125 33.0935 11.0004 33.5156 9.68749C32.5307 10.5202 31.2895 10.9891 30 11.0156C29.1498 10.1449 28.0402 9.57332 26.8376 9.38675C25.635 9.20018 24.4044 9.40866 23.3303 9.9809C22.2563 10.5531 21.3968 11.4583 20.8808 12.5604C20.3649 13.6626 20.2203 14.9024 20.4688 16.0937C18.2807 15.9782 16.1415 15.4038 14.1899 14.4078C12.2383 13.4118 10.5179 12.0165 9.14062 10.3125C8.46665 11.5321 8.26931 12.9584 8.58685 14.3151C8.90438 15.6718 9.71419 16.8624 10.8594 17.6562C9.99509 17.6685 9.13962 17.4813 8.35938 17.1094C8.38039 18.3678 8.82286 19.5829 9.61601 20.5602C10.4092 21.5374 11.5072 22.2205 12.7344 22.5C11.9175 22.7133 11.063 22.74 10.2344 22.5781C10.5918 23.693 11.2883 24.6685 12.2266 25.3688C13.1649 26.069 14.2983 26.459 15.4688 26.4844C12.9967 27.984 10.157 28.7683 7.26562 28.75C9.68713 30.3309 12.4999 31.2087 15.3907 31.2858C18.2815 31.3629 21.1371 30.6362 23.6394 29.1866C26.1417 27.7371 28.1926 25.6215 29.5639 23.0754C30.9352 20.5294 31.573 17.6527 31.4062 14.7656C32.4372 13.9225 33.3561 12.9511 34.1406 11.875Z" fill="white"/>
</svg>
