<svg width="40" height="40" viewBox="0 0 40 40" fill="none" xmlns="http://www.w3.org/2000/svg">
<path d="M39.9883 0H0.0117188C0.00524666 0 0 0.00524666 0 0.0117188V39.9883C0 39.9948 0.00524666 40 0.0117188 40H39.9883C39.9948 40 40 39.9948 40 39.9883V0.0117188C40 0.00524666 39.9948 0 39.9883 0Z" fill="#45D354"/>
<path d="M24.0625 21.3281C23.8282 21.1719 23.5938 21.0938 23.3594 21.4063L22.4219 22.6563C22.1875 22.8125 22.0313 22.8906 21.7188 22.7344C20.5469 22.1094 18.9063 21.4063 17.5 19.0625C17.4219 18.75 17.5782 18.5938 17.7344 18.4375L18.4375 17.3438C18.5938 17.1875 18.5157 17.0313 18.4375 16.875L17.5 14.6094C17.2657 13.9844 17.0313 14.0625 16.7969 14.0625H16.1719C16.0157 14.0625 15.7032 14.1406 15.3907 14.4531C13.6719 16.1719 14.375 18.5938 15.625 20.1563C15.8594 20.4688 17.4219 23.2813 20.7813 24.7656C23.2813 25.8594 23.8282 25.7031 24.5313 25.5469C25.3907 25.4688 26.25 24.7656 26.6407 24.0625C26.7188 23.8281 27.1094 22.8125 26.7969 22.6563" fill="white"/>
<path d="M20.625 30C17.4219 30 15 28.2812 15 28.2812L11.1719 29.2969L12.1094 25.5469C12.1094 25.5469 10.5469 23.125 10.5469 20.0781C10.5469 14.4531 15.1562 9.76562 20.8594 9.76562C26.1719 9.76562 30.7031 13.9062 30.7031 19.6875C30.7031 25.3125 26.1719 29.9219 20.625 30ZM8.20312 32.2656L14.6875 30.4688C16.5655 31.4302 18.6586 31.8942 20.7669 31.8166C22.8753 31.7389 24.9285 31.1222 26.7307 30.0252C28.5329 28.9282 30.0238 27.3876 31.0612 25.5505C32.0985 23.7134 32.6477 21.641 32.6562 19.5312C32.6562 12.8125 27.3438 7.42188 20.625 7.42188C18.4685 7.42739 16.3511 7.99776 14.4837 9.07618C12.6162 10.1546 11.0639 11.7034 9.98121 13.5684C8.89855 15.4334 8.32338 17.5495 8.31297 19.706C8.30256 21.8624 8.85728 23.984 9.92188 25.8594" fill="white"/>
</svg>
