<svg xmlns="http://www.w3.org/2000/svg" viewBox="0 0 416.63 133.3">
    <defs>
        <style>
            .cls-1 {
                fill: #ffffff;
            }
            
            .cls-2 {
                fill: #ffffff;
            }
            
            .cls-3 {
                fill: #ffffff;
            }
            
            .cls-4 {
                fill: #ffffff;
            }
        </style>
    </defs>
    <title>Ativo 1</title>
    <g id="Camada_2" data-name="Camada 2">
        <g id="Camada_1-2" data-name="Camada 1">
            <path class="cls-1" d="M75.84,53.81C71.74,74.46,11.24,83,10.79,94.66a.18.18,0,0,1-.31.12,39.44,39.44,0,0,1-5.35-7.39,7.3,7.3,0,0,1,2.71-9.91l.09-.06c11.23-6.2,52.16-14.76,60.44-37.26a.17.17,0,0,1,.29-.07,40,40,0,0,1,6.62,9.32,6.76,6.76,0,0,1,.57,4.36Z" />
            <path class="cls-2" d="M58.44,37.79C44.9,60.45,3.89,56.41.8,73.43a.18.18,0,0,1-.35,0C.26,71.83,0,69.29,0,67.72a33.13,33.13,0,0,1,2.14-13C10.2,35.9,43.56,41.91,45.34,28.24a.17.17,0,0,1,.2-.15,38.9,38.9,0,0,1,11,3.27,4.41,4.41,0,0,1,1.94,6.37Z" />
            <path class="cls-3" d="M79.86,66.86a.17.17,0,0,0-.17-.17.19.19,0,0,0-.15.09v0C72.72,85.63,33.81,91.45,23.21,97.72a3.56,3.56,0,0,0,0,6.29c4.64,2.92,10.55,3.58,16.39,3.64A39.94,39.94,0,0,0,79.87,68C79.87,67.63,79.87,67.24,79.86,66.86Z" />
            <path class="cls-4" d="M132.27,28.51a38.09,38.09,0,1,0,17.38,71v5.11h19V67.06C168.69,46.59,152.73,29.39,132.27,28.51ZM149.61,67.8a19,19,0,1,1-20.24-20.24A19.12,19.12,0,0,1,149.61,67.8Z" />
            <path class="cls-4" d="M214.78,28.61c-19.92,1-36.19,18.8-36.19,38.74v66h19V99.63a38.08,38.08,0,1,0,17.14-71Zm20.84,40a19,19,0,1,1-20.89-20.89A19.1,19.1,0,0,1,235.62,68.6Z" />
            <path class="cls-4" d="M409.24,10.47a3,3,0,0,0,2.31-3c0-2-1.52-3.18-3.84-3.18h-4.44v10h1.89V10.78h2.08l2.42,3.45h2.26Zm-1.6-1.34h-2.48V6h2.48c1.23,0,2,.55,2,1.58S408.87,9.13,407.64,9.13Zm1.6,1.34a3,3,0,0,0,2.31-3c0-2-1.52-3.18-3.84-3.18h-4.44v10h1.89V10.78h2.08l2.42,3.45h2.26Zm-1.6-1.34h-2.48V6h2.48c1.23,0,2,.55,2,1.58S408.87,9.13,407.64,9.13ZM407.14,0a9.54,9.54,0,0,0-9.55,9.55A9.45,9.45,0,0,0,407.08,19a9.52,9.52,0,1,0,.06-19Zm-.06,18.09a8.41,8.41,0,0,1-8.49-8.54,8.53,8.53,0,1,1,17.05-.06A8.5,8.5,0,0,1,407.08,18.09Zm4.47-10.65c0-2-1.52-3.18-3.84-3.18h-4.44v10h1.89V10.78h2.08l2.42,3.45h2.26l-2.68-3.76A3,3,0,0,0,411.55,7.44Zm-3.91,1.69h-2.48V6h2.48c1.23,0,2,.55,2,1.58S408.87,9.13,407.64,9.13Z" />
            <rect class="cls-4" x="264.29" y="28.56" width="19.04" height="76.17" />
            <polygon class="cls-4" points="359.5 28.56 340.46 28.56 311.89 66.65 340.46 104.74 359.5 104.74 330.94 66.65 359.5 28.56" />
            <rect class="cls-4" x="292.85" width="19.04" height="104.74" />
            <rect class="cls-4" x="264.29" width="19.04" height="19.04" />
            <rect class="cls-4" x="369.02" y="28.56" width="19.04" height="76.17" />
            <rect class="cls-4" x="369.02" width="19.04" height="19.04" />
        </g>
    </g>
</svg>