<svg style="height: 50px; max-height: 100%;" xmlns="http://www.w3.org/2000/svg" viewBox="0 0 628.13 167"><defs><style>.cls-1{fill:#f19800}.cls-2{fill:#ea7500}.cls-3{fill:#fed400}.cls-4{fill:#009cde}.cls-5{fill:none;stroke:#898a8d;stroke-miterlimit:10}.cls-6{font-size:40px;fill:#89878c;font-family:Gotham-Book,Gotham;letter-spacing:.2em}.cls-7{letter-spacing:.16em}</style></defs><title>Apiki_Blog_Color</title><g id="Camada_2" data-name="Camada 2"><g id="Camada_1-2" data-name="Camada 1"><path class="cls-1" d="M75.84,85.35c-4.1,20.64-64.6,29.2-65.05,40.85a.18.18,0,0,1-.31.11,39.37,39.37,0,0,1-5.35-7.38A7.31,7.31,0,0,1,7.84,109l.09-.05c11.23-6.2,52.16-14.77,60.44-37.27a.17.17,0,0,1,.29-.06A39.82,39.82,0,0,1,75.28,81a6.74,6.74,0,0,1,.57,4.35Z"></path><path class="cls-2" d="M58.44,69.33C44.9,92,3.89,87.94.8,105a.18.18,0,0,1-.35,0C.26,103.36,0,100.83,0,99.26c0-4.56.45-9.05,2.14-13,8.06-18.83,41.42-12.81,43.2-26.48a.18.18,0,0,1,.2-.16,39.56,39.56,0,0,1,11,3.27,4.42,4.42,0,0,1,1.94,6.38Z"></path><path class="cls-3" d="M79.86,98.4a.18.18,0,0,0-.17-.18.18.18,0,0,0-.15.1v0C72.72,117.17,33.81,123,23.21,129.25a3.56,3.56,0,0,0,0,6.29c4.64,2.92,10.55,3.59,16.39,3.65A39.94,39.94,0,0,0,79.87,99.55C79.87,99.17,79.87,98.78,79.86,98.4Z"></path><path class="cls-4" d="M132.27,60.05a38.09,38.09,0,1,0,17.38,71v5.11h19V98.6C168.69,78.13,152.73,60.92,132.27,60.05Zm17.34,39.29A19,19,0,1,1,129.37,79.1,19.11,19.11,0,0,1,149.61,99.34Z"></path><path class="cls-4" d="M214.78,60.15c-19.92,1-36.19,18.79-36.19,38.74v66h19V131.16A37.84,37.84,0,0,0,218,136.25a38.09,38.09,0,1,0-3.25-76.1Zm20.84,40a19,19,0,1,1-20.89-20.89A19.11,19.11,0,0,1,235.62,100.13Z"></path><path class="cls-4" d="M409.24,42a3,3,0,0,0,2.31-3c0-2-1.52-3.18-3.84-3.18h-4.44v10h1.89V42.32h2.08l2.42,3.44h2.26Zm-1.6-1.35h-2.48V37.51h2.48c1.23,0,2,.55,2,1.57S408.87,40.66,407.64,40.66Zm1.6,1.35a3,3,0,0,0,2.31-3c0-2-1.52-3.18-3.84-3.18h-4.44v10h1.89V42.32h2.08l2.42,3.44h2.26Zm-1.6-1.35h-2.48V37.51h2.48c1.23,0,2,.55,2,1.57S408.87,40.66,407.64,40.66Zm-.5-9.12A9.52,9.52,0,1,0,416.63,41,9.54,9.54,0,0,0,407.14,31.54Zm-.06,18.09a8.58,8.58,0,1,1,8.56-8.6A8.42,8.42,0,0,1,407.08,49.63ZM411.55,39c0-2-1.52-3.18-3.84-3.18h-4.44v10h1.89V42.32h2.08l2.42,3.44h2.26L409.24,42A3,3,0,0,0,411.55,39Zm-3.91,1.68h-2.48V37.51h2.48c1.23,0,2,.55,2,1.57S408.87,40.66,407.64,40.66Z"></path><rect class="cls-4" x="264.29" y="60.1" width="19.04" height="76.17"></rect><polygon class="cls-4" points="359.5 60.1 340.46 60.1 311.89 98.19 340.46 136.27 359.5 136.27 330.94 98.19 359.5 60.1"></polygon><rect class="cls-4" x="292.85" y="31.54" width="19.04" height="104.74"></rect><rect class="cls-4" x="264.29" y="31.54" width="19.04" height="19.04"></rect><rect class="cls-4" x="369.02" y="60.1" width="19.04" height="76.17"></rect><rect class="cls-4" x="369.02" y="31.54" width="19.04" height="19.04"></rect><line class="cls-5" x1="446.31" x2="446.31" y2="167"></line><text class="cls-6" transform="translate(478.73 112.65)">B<tspan class="cls-7" x="36.88" y="0">L</tspan><tspan x="68.04" y="0">OG</tspan></text></g></g></svg>