<svg width="40" height="40" viewBox="0 0 40 40" fill="none" xmlns="http://www.w3.org/2000/svg">
<g clip-path="url(#clip0_2_151)">
<path d="M32.6493 9.5503C32.6494 10.0081 32.5138 10.4556 32.2595 10.8362C32.0052 11.2169 31.6438 11.5136 31.2209 11.6888C30.798 11.864 30.3326 11.9099 29.8837 11.8206C29.4347 11.7313 29.0223 11.5109 28.6986 11.1872C28.3749 10.8635 28.1545 10.4511 28.0652 10.0022C27.9759 9.55318 28.0218 9.08781 28.197 8.66491C28.3722 8.24201 28.6689 7.88057 29.0496 7.6263C29.4303 7.37204 29.8778 7.23638 30.3355 7.23647C30.9491 7.2366 31.5376 7.48042 31.9715 7.91432C32.4054 8.34822 32.6492 8.93667 32.6493 9.5503ZM40 19.9999L39.9995 20.029L39.8681 28.42C39.8339 31.4456 38.6169 34.3375 36.4774 36.477C34.3379 38.6165 31.446 39.8336 28.4205 39.8677L20 40L19.9709 39.9995L11.5799 39.8684C8.55435 39.8343 5.66234 38.6172 3.52277 36.4777C1.38319 34.3383 0.166013 31.4463 0.131714 28.4207L0 19.9999L0.000571429 19.9708L0.131619 11.5795C0.166015 8.55391 1.38322 5.662 3.52278 3.52254C5.66234 1.38307 8.55429 0.166002 11.5798 0.131757L20 -0.000244141L20.0291 0.000327292L28.4201 0.131376C31.4456 0.165624 34.3375 1.38271 36.4769 3.52219C38.6164 5.66167 39.8335 8.55359 39.8677 11.5791L40 19.9999ZM36.275 19.9999L36.1442 11.6379C36.121 9.58113 35.2936 7.61512 33.8391 6.16064C32.3847 4.70616 30.4187 3.87876 28.3619 3.8555L20 3.72492L11.6381 3.8555C9.5813 3.87881 7.61533 4.70622 6.16086 6.16068C4.70639 7.61515 3.87895 9.58113 3.85562 11.6379L3.72505 19.9999L3.85562 28.3619C3.87888 30.4187 4.70629 32.3847 6.16078 33.8392C7.61527 35.2937 9.58128 36.1211 11.6381 36.1443L20 36.2749L28.3619 36.1443C30.4187 36.1211 32.3847 35.2937 33.8392 33.8392C35.2937 32.3847 36.121 30.4187 36.1442 28.3619L36.275 19.9999ZM30.2705 19.9999C30.2705 22.0312 29.6681 24.017 28.5396 25.706C27.411 27.395 25.807 28.7114 23.9303 29.4887C22.0536 30.2661 19.9885 30.4695 17.9962 30.0732C16.0039 29.6769 14.1738 28.6987 12.7375 27.2623C11.3011 25.8259 10.3229 23.9959 9.92667 22.0035C9.53039 20.0112 9.73379 17.9461 10.5112 16.0694C11.2885 14.1927 12.605 12.5887 14.294 11.4601C15.9829 10.3316 17.9687 9.72923 20 9.72925C22.723 9.73233 25.3335 10.8154 27.259 12.7409C29.1844 14.6663 30.2674 17.2769 30.2705 19.9999ZM26.546 19.9999C26.546 18.7052 26.1621 17.4396 25.4428 16.363C24.7235 15.2865 23.7011 14.4475 22.505 13.952C21.3088 13.4566 19.9926 13.327 18.7228 13.5795C17.453 13.8321 16.2866 14.4556 15.3711 15.3711C14.4556 16.2866 13.8322 17.453 13.5796 18.7229C13.327 19.9927 13.4567 21.3089 13.9521 22.5051C14.4476 23.7012 15.2866 24.7236 16.3632 25.4429C17.4397 26.1621 18.7053 26.5461 20 26.546C21.7355 26.544 23.3993 25.8537 24.6265 24.6265C25.8537 23.3993 26.5439 21.7354 26.5459 19.9999H26.546Z" fill="white"/>
</g>
<defs>
<clipPath id="clip0_2_151">
<rect width="40" height="40" fill="white"/>
</clipPath>
</defs>
</svg>
