<svg width="40" height="40" viewBox="0 0 40 40" fill="none" xmlns="http://www.w3.org/2000/svg">
<g clip-path="url(#clip0_3_4)">
<path d="M20 12.5C15.8672 12.5 12.5 15.8672 12.5 20C12.5 24.1328 15.8672 27.5 20 27.5C24.1328 27.5 27.5 24.1328 27.5 20C27.5 15.8672 24.1328 12.5 20 12.5ZM39.25 18.7891L31.8516 15.0938L34.4688 7.25C34.8203 6.1875 33.8125 5.17969 32.7578 5.53906L24.9141 8.15625L21.2109 0.75C20.7109 -0.25 19.2891 -0.25 18.7891 0.75L15.0938 8.14844L7.24219 5.53125C6.17969 5.17969 5.17188 6.1875 5.53125 7.24219L8.14844 15.0859L0.75 18.7891C-0.25 19.2891 -0.25 20.7109 0.75 21.2109L8.14844 24.9062L5.53125 32.7578C5.17969 33.8203 6.1875 34.8281 7.24219 34.4688L15.0859 31.8516L18.7813 39.25C19.2813 40.25 20.7031 40.25 21.2031 39.25L24.8984 31.8516L32.7422 34.4688C33.8047 34.8203 34.8125 33.8125 34.4531 32.7578L31.8359 24.9141L39.2344 21.2188C40.25 20.7109 40.25 19.2891 39.25 18.7891ZM27.0703 27.0703C23.1719 30.9688 16.8281 30.9688 12.9297 27.0703C9.03125 23.1719 9.03125 16.8281 12.9297 12.9297C16.8281 9.03125 23.1719 9.03125 27.0703 12.9297C30.9688 16.8281 30.9688 23.1719 27.0703 27.0703Z" fill="white"/>
</g>
<defs>
<clipPath id="clip0_3_4">
<rect width="40" height="40" fill="white"/>
</clipPath>
</defs>
</svg>
